<svg version="1.1" id="Layer_1" xmlns="http://www.w3.org/2000/svg" xmlns:xlink="http://www.w3.org/1999/xlink" x="0px" y="0px"
	 width="100%" viewBox="0 0 512 512" enable-background="new 0 0 512 512" xml:space="preserve">
<path fill="#010101" opacity="1.000000" stroke="none"
	d="
M338.000000,513.000000
	C225.360703,513.000000 113.221397,513.000000 1.041047,513.000000
	C1.041047,342.402344 1.041047,171.804672 1.041047,1.103501
	C171.555969,1.103501 342.112030,1.103501 512.834045,1.103501
	C512.834045,171.666534 512.834045,342.333252 512.834045,513.000000
	C454.804657,513.000000 396.652313,513.000000 338.000000,513.000000
M196.809753,236.446274
	C196.930573,235.986572 197.051392,235.526886 197.706207,234.658524
	C198.346588,232.762482 198.986969,230.866455 200.025574,228.388031
	C201.037827,226.308197 202.050079,224.228363 203.626236,221.854599
	C204.034744,220.886368 204.443237,219.918152 205.470657,218.655136
	C211.384537,209.882294 217.950607,202.030670 227.224869,196.211349
	C248.050980,183.143646 270.355133,180.300095 293.824493,185.298279
	C320.879639,191.060089 342.563110,205.933411 360.251343,226.822479
	C379.478455,249.528854 389.661530,276.746216 397.961029,304.727081
	C402.223236,319.096619 405.369720,333.797150 409.097046,348.653625
	C409.565308,347.565308 410.167572,346.610382 410.393188,345.573517
	C413.321472,332.114899 417.643677,318.768707 418.810394,305.153870
	C422.174744,265.894043 412.852295,229.819183 387.737793,198.717636
	C376.770264,185.135559 363.688690,173.964447 347.203827,166.263458
	C346.461853,165.941986 345.719879,165.620514 344.343048,164.921494
	C341.209442,163.683640 338.075867,162.445770 334.360657,160.823471
	C331.893341,160.140305 329.426025,159.457138 326.374207,158.336075
	C325.899994,158.279266 325.425781,158.222473 324.434875,157.696579
	C322.609222,157.395889 320.783539,157.095200 318.332214,156.426727
	C317.854523,156.403351 317.376831,156.379974 316.423950,155.926971
	C315.602173,155.826614 314.780365,155.726257 313.280548,155.227814
	C312.503540,155.209427 311.726562,155.191055 310.309418,154.835403
	C308.858704,154.823639 307.407990,154.811859 305.094849,154.425690
	C298.743378,154.537292 292.391937,154.648911 285.340210,154.516861
	C283.911804,154.731812 282.483398,154.946762 280.285065,155.009354
	C279.535522,155.191620 278.785980,155.373886 277.422607,155.365601
	C276.647797,155.676041 275.873016,155.986465 274.371399,156.233185
	C273.927399,156.415207 273.483429,156.597214 272.303497,156.561462
	C266.762024,158.330276 261.220581,160.099091 255.020874,161.917938
	C254.020599,162.367935 253.020325,162.817932 251.352737,163.281219
	C249.863632,164.171677 248.374512,165.062119 246.201859,166.075821
	C242.145340,168.747910 238.088837,171.420013 233.411636,174.194489
	C232.800919,174.741272 232.190201,175.288055 230.976883,176.071945
	C225.343964,181.796875 219.711044,187.521820 213.501938,193.430908
	C213.001587,194.287399 212.501236,195.143875 211.393265,196.298172
	C209.156601,199.965454 206.919952,203.632736 204.152924,207.678131
	C203.828918,208.456635 203.504913,209.235138 202.761780,210.579330
	C201.876923,212.730194 200.992065,214.881073 199.610855,217.363159
	C199.446152,217.911942 199.281464,218.460709 198.731293,219.535507
	C198.526077,220.368469 198.320862,221.201416 197.647720,222.378357
	C197.557968,222.928055 197.468216,223.477768 196.978134,224.653503
	C196.697845,226.099823 196.417557,227.546143 195.684616,229.496964
	C195.270111,231.004883 194.855606,232.512817 194.024246,234.676620
	C194.044403,235.449020 194.064560,236.221420 193.878571,237.469086
	C193.992538,238.081833 194.106506,238.694595 194.220474,239.307343
	C194.921234,238.530960 195.621979,237.754562 196.809753,236.446274
M238.718430,349.206238
	C251.544418,346.382050 263.672272,342.033356 273.803589,333.217285
	C271.753998,333.073242 269.912140,333.470795 268.194092,334.171783
	C247.074371,342.788788 225.425720,343.632080 204.459793,335.208801
	C163.354950,318.694550 140.138565,287.005493 134.229752,243.767303
	C128.761063,203.749863 144.207718,170.803925 174.061539,144.362228
	C192.852264,127.719185 215.593506,118.181244 238.822723,109.914185
	C268.116516,99.488800 298.210083,91.819374 328.663544,85.564758
	C331.604370,84.960777 334.483002,84.054047 338.481079,83.000465
	C335.826019,81.861664 334.356750,81.087021 332.799530,80.585640
	C315.225006,74.927238 297.479492,70.230850 279.094177,67.658508
	C249.306534,63.490810 220.323563,65.693993 192.118546,76.236542
	C160.225800,88.157516 134.285126,108.152092 116.469131,137.057480
	C91.402863,177.725983 86.447983,221.414474 101.904671,266.873444
	C121.534180,324.604950 181.023270,360.283997 238.718430,349.206238
M179.472824,440.044800
	C188.141953,442.256775 196.726746,444.907837 205.497147,446.592682
	C226.076767,450.546021 246.507034,448.716888 265.950104,441.397614
	C310.588470,424.593658 337.057190,392.579620 341.713989,344.668243
	C344.717194,313.769165 335.338745,286.156006 314.095764,263.041534
	C311.906006,260.658844 309.174683,258.773895 306.694672,256.657990
	C306.384827,257.007812 306.074982,257.357635 305.765137,257.707458
	C307.601013,259.979706 309.669312,262.102966 311.236816,264.547302
	C326.826355,288.857483 330.177704,315.027130 320.176880,341.901367
	C304.937164,382.853485 273.762756,404.304779 231.291122,410.104828
	C209.636108,413.062103 188.303558,409.229706 167.631653,403.374268
	C148.332794,397.907715 129.622086,390.366638 110.643745,383.763885
	C108.535614,383.030426 106.370140,382.461823 102.891129,381.412567
	C124.600922,407.363892 148.382385,427.876984 179.472824,440.044800
M254.555588,290.583160
	C255.774155,290.056213 257.008301,289.562408 258.208771,288.996979
	C266.729584,284.983429 271.799042,274.504303 269.484253,265.720154
	C266.550140,254.585648 257.965454,248.285919 246.741547,249.030792
	C237.153625,249.667068 229.114609,257.525696 228.041672,267.311066
	C226.399506,282.288147 236.684784,291.713959 254.555588,290.583160
z"/>
<path fill="#FAF9F9" opacity="1.000000" stroke="none"
	d="
M238.299286,349.287628
	C181.023270,360.283997 121.534180,324.604950 101.904671,266.873444
	C86.447983,221.414474 91.402863,177.725983 116.469131,137.057480
	C134.285126,108.152092 160.225800,88.157516 192.118546,76.236542
	C220.323563,65.693993 249.306534,63.490810 279.094177,67.658508
	C297.479492,70.230850 315.225006,74.927238 332.799530,80.585640
	C334.356750,81.087021 335.826019,81.861664 338.481079,83.000465
	C334.483002,84.054047 331.604370,84.960777 328.663544,85.564758
	C298.210083,91.819374 268.116516,99.488800 238.822723,109.914185
	C215.593506,118.181244 192.852264,127.719185 174.061539,144.362228
	C144.207718,170.803925 128.761063,203.749863 134.229752,243.767303
	C140.138565,287.005493 163.354950,318.694550 204.459793,335.208801
	C225.425720,343.632080 247.074371,342.788788 268.194092,334.171783
	C269.912140,333.470795 271.753998,333.073242 273.803589,333.217285
	C263.672272,342.033356 251.544418,346.382050 238.299286,349.287628
z"/>
<path fill="#F9F8F8" opacity="1.000000" stroke="none"
	d="
M179.098373,439.932617
	C148.382385,427.876984 124.600922,407.363892 102.891129,381.412567
	C106.370140,382.461823 108.535614,383.030426 110.643745,383.763885
	C129.622086,390.366638 148.332794,397.907715 167.631653,403.374268
	C188.303558,409.229706 209.636108,413.062103 231.291122,410.104828
	C273.762756,404.304779 304.937164,382.853485 320.176880,341.901367
	C330.177704,315.027130 326.826355,288.857483 311.236816,264.547302
	C309.669312,262.102966 307.601013,259.979706 305.765137,257.707458
	C306.074982,257.357635 306.384827,257.007812 306.694672,256.657990
	C309.174683,258.773895 311.906006,260.658844 314.095764,263.041534
	C335.338745,286.156006 344.717194,313.769165 341.713989,344.668243
	C337.057190,392.579620 310.588470,424.593658 265.950104,441.397614
	C246.507034,448.716888 226.076767,450.546021 205.497147,446.592682
	C196.726746,444.907837 188.141953,442.256775 179.098373,439.932617
z"/>
<path fill="#FAF9F9" opacity="1.000000" stroke="none"
	d="
M286.040466,154.760513
	C292.391937,154.648911 298.743378,154.537292 305.675842,154.887512
	C307.821045,155.290466 309.385315,155.231567 310.949554,155.172684
	C311.726562,155.191055 312.503540,155.209427 313.695557,155.690094
	C315.040070,156.220459 315.969604,156.288528 316.899139,156.356598
	C317.376831,156.379974 317.854523,156.403351 318.788513,156.883255
	C321.147095,157.615082 323.049316,157.890381 324.951569,158.165665
	C325.425781,158.222473 325.899994,158.279266 326.809570,158.834045
	C329.810699,159.957321 332.376465,160.582611 334.942261,161.207901
	C338.075867,162.445770 341.209442,163.683640 344.745850,165.442566
	C345.943085,166.240372 346.737518,166.517090 347.531952,166.793823
	C363.688690,173.964447 376.770264,185.135559 387.737793,198.717636
	C412.852295,229.819183 422.174744,265.894043 418.810394,305.153870
	C417.643677,318.768707 413.321472,332.114899 410.393188,345.573517
	C410.167572,346.610382 409.565308,347.565308 409.097046,348.653625
	C405.369720,333.797150 402.223236,319.096619 397.961029,304.727081
	C389.661530,276.746216 379.478455,249.528854 360.251343,226.822479
	C342.563110,205.933411 320.879639,191.060089 293.824493,185.298279
	C270.355133,180.300095 248.050980,183.143646 227.224869,196.211349
	C217.950607,202.030670 211.384537,209.882294 204.817047,218.871094
	C203.796417,220.107559 203.429382,221.128036 203.062347,222.148514
	C202.050079,224.228363 201.037827,226.308197 199.477310,228.675552
	C197.998459,228.972870 197.067856,228.982666 196.137268,228.992462
	C196.417557,227.546143 196.697845,226.099823 197.442047,224.307098
	C197.975861,223.318604 198.045746,222.676483 198.115631,222.034378
	C198.320862,221.201416 198.526077,220.368469 199.204361,219.245850
	C199.820694,218.314774 199.963943,217.673355 200.107208,217.031937
	C200.992065,214.881073 201.876923,212.730194 203.326721,210.208939
	C204.155548,208.992371 204.419418,208.146194 204.683289,207.300018
	C206.919952,203.632736 209.156601,199.965454 212.028412,196.118866
	C213.135086,195.041962 213.606613,194.144363 214.078140,193.246765
	C219.711044,187.521820 225.343964,181.796875 231.629120,175.984375
	C232.865005,175.295227 233.448669,174.693665 234.032318,174.092102
	C238.088837,171.420013 242.145340,168.747910 246.906738,166.039032
	C249.081085,165.090790 250.550568,164.179352 252.020050,163.267929
	C253.020325,162.817932 254.020599,162.367935 255.762253,161.941406
	C262.015564,160.236328 267.527496,158.507782 273.039429,156.779236
	C273.483429,156.597214 273.927399,156.415207 274.922852,156.471375
	C276.328369,156.325104 277.182404,155.940628 278.036438,155.556152
	C278.785980,155.373886 279.535522,155.191620 280.891998,155.323334
	C283.012787,155.345062 284.526611,155.052795 286.040466,154.760513
z"/>
<path fill="#F8F7F7" opacity="1.000000" stroke="none"
	d="
M254.157745,290.731689
	C236.684784,291.713959 226.399506,282.288147 228.041672,267.311066
	C229.114609,257.525696 237.153625,249.667068 246.741547,249.030792
	C257.965454,248.285919 266.550140,254.585648 269.484253,265.720154
	C271.799042,274.504303 266.729584,284.983429 258.208771,288.996979
	C257.008301,289.562408 255.774155,290.056213 254.157745,290.731689
z"/>
<path fill="#E9EBEB" opacity="1.000000" stroke="none"
	d="
M272.671448,156.670349
	C267.527496,158.507782 262.015564,160.236328 256.091370,161.916382
	C261.220581,160.099091 266.762024,158.330276 272.671448,156.670349
z"/>
<path fill="#E9EBEB" opacity="1.000000" stroke="none"
	d="
M195.910950,229.244720
	C197.067856,228.982666 197.998459,228.972870 199.278198,228.966736
	C198.986969,230.866455 198.346588,232.762482 197.161987,234.761154
	C195.892212,234.582764 195.166656,234.301743 194.441101,234.020721
	C194.855606,232.512817 195.270111,231.004883 195.910950,229.244720
M196.412445,232.482819
	C196.412445,232.482819 196.525009,232.411270 196.412445,232.482819
z"/>
<path fill="#E9EBEB" opacity="1.000000" stroke="none"
	d="
M334.651459,161.015686
	C332.376465,160.582611 329.810699,159.957321 327.101807,159.052994
	C329.426025,159.457138 331.893341,160.140305 334.651459,161.015686
z"/>
<path fill="#E9EBEB" opacity="1.000000" stroke="none"
	d="
M324.693237,157.931122
	C323.049316,157.890381 321.147095,157.615082 319.101379,157.067139
	C320.783539,157.095200 322.609222,157.395889 324.693237,157.931122
z"/>
<path fill="#E9EBEB" opacity="1.000000" stroke="none"
	d="
M285.690338,154.638687
	C284.526611,155.052795 283.012787,155.345062 281.276978,155.399506
	C282.483398,154.946762 283.911804,154.731812 285.690338,154.638687
z"/>
<path fill="#E9EBEB" opacity="1.000000" stroke="none"
	d="
M310.629486,155.004044
	C309.385315,155.231567 307.821045,155.290466 306.107056,155.074707
	C307.407990,154.811859 308.858704,154.823639 310.629486,155.004044
z"/>
<path fill="#E9EBEB" opacity="1.000000" stroke="none"
	d="
M196.322739,236.978180
	C195.621979,237.754562 194.921234,238.530960 194.220474,239.307343
	C194.106506,238.694595 193.992538,238.081833 194.261490,237.234985
	C195.203857,236.993317 195.763290,236.985748 196.322739,236.978180
z"/>
<path fill="#E9EBEB" opacity="1.000000" stroke="none"
	d="
M251.686401,163.274567
	C250.550568,164.179352 249.081085,165.090790 247.248505,165.977386
	C248.374512,165.062119 249.863632,164.171677 251.686401,163.274567
z"/>
<path fill="#FAF9F9" opacity="1.000000" stroke="none"
	d="
M196.566254,236.712219
	C195.763290,236.985748 195.203857,236.993317 194.364563,236.997345
	C194.064560,236.221420 194.044403,235.449020 194.232666,234.348663
	C195.166656,234.301743 195.892212,234.582764 196.894989,234.965485
	C197.051392,235.526886 196.930573,235.986572 196.566254,236.712219
z"/>
<path fill="#E9EBEB" opacity="1.000000" stroke="none"
	d="
M316.661560,156.141785
	C315.969604,156.288528 315.040070,156.220459 314.034546,155.889145
	C314.780365,155.726257 315.602173,155.826614 316.661560,156.141785
z"/>
<path fill="#E9EBEB" opacity="1.000000" stroke="none"
	d="
M277.729523,155.460876
	C277.182404,155.940628 276.328369,156.325104 275.286255,156.503235
	C275.873016,155.986465 276.647797,155.676041 277.729523,155.460876
z"/>
<path fill="#E9EBEB" opacity="1.000000" stroke="none"
	d="
M203.344299,222.001556
	C203.429382,221.128036 203.796417,220.107559 204.507599,219.018494
	C204.443237,219.918152 204.034744,220.886368 203.344299,222.001556
z"/>
<path fill="#E9EBEB" opacity="1.000000" stroke="none"
	d="
M213.790039,193.338837
	C213.606613,194.144363 213.135086,195.041962 212.332214,195.969971
	C212.501236,195.143875 213.001587,194.287399 213.790039,193.338837
z"/>
<path fill="#E9EBEB" opacity="1.000000" stroke="none"
	d="
M197.881683,222.206360
	C198.045746,222.676483 197.975861,223.318604 197.642212,223.994080
	C197.468216,223.477768 197.557968,222.928055 197.881683,222.206360
z"/>
<path fill="#E9EBEB" opacity="1.000000" stroke="none"
	d="
M199.859039,217.197540
	C199.963943,217.673355 199.820694,218.314774 199.397095,218.982849
	C199.281464,218.460709 199.446152,217.911942 199.859039,217.197540
z"/>
<path fill="#E9EBEB" opacity="1.000000" stroke="none"
	d="
M204.418106,207.489075
	C204.419418,208.146194 204.155548,208.992371 203.536285,209.926086
	C203.504913,209.235138 203.828918,208.456635 204.418106,207.489075
z"/>
<path fill="#E9EBEB" opacity="1.000000" stroke="none"
	d="
M233.721985,174.143295
	C233.448669,174.693665 232.865005,175.295227 231.930420,175.865814
	C232.190201,175.288055 232.800919,174.741272 233.721985,174.143295
z"/>
<path fill="#E9EBEB" opacity="1.000000" stroke="none"
	d="
M347.367889,166.528641
	C346.737518,166.517090 345.943085,166.240372 345.063293,165.631348
	C345.719879,165.620514 346.461853,165.941986 347.367889,166.528641
z"/>
<path fill="#FAF9F9" opacity="1.000000" stroke="none"
	d="
M196.468719,232.447052
	C196.525009,232.411270 196.412445,232.482819 196.468719,232.447052
z"/>
</svg>
