<svg version="1.1" id="Layer_1" xmlns="http://www.w3.org/2000/svg" xmlns:xlink="http://www.w3.org/1999/xlink" x="0px" y="0px"
	 width="100%" viewBox="0 0 512 512" enable-background="new 0 0 512 512" xml:space="preserve">
<path fill="#000000" opacity="1.000000" stroke="none"
	d="
M148.783112,339.356720
	C124.549461,323.589233 107.291962,302.545532 96.430267,276.127594
	C89.758232,259.899841 84.631882,243.489838 85.567863,225.580902
	C86.354576,210.528000 84.492432,195.386917 88.578346,180.464355
	C95.204910,156.262833 105.612076,133.978424 121.994873,114.953812
	C133.294418,101.832161 146.620956,90.772743 161.496140,81.696678
	C178.812210,71.131302 197.543228,64.266678 217.266006,59.861004
	C229.051636,57.228329 241.013947,58.006474 252.935120,57.569836
	C283.513947,56.449829 312.241974,64.390358 340.578247,74.602356
	C344.469910,76.004860 346.026947,79.125656 346.143311,82.663200
	C346.267853,86.450142 344.502167,89.515564 340.699738,91.375984
	C335.600830,93.870766 329.995636,93.195450 324.699249,94.543381
	C305.604218,99.403107 286.692169,104.965096 267.619110,109.824722
	C247.704285,114.898834 228.850037,122.433632 210.338043,130.927841
	C190.082611,140.222031 172.951904,153.742081 160.072647,172.140671
	C149.485779,187.264465 144.095383,204.224701 142.225021,222.588516
	C140.440460,240.109726 144.238770,256.722778 150.766098,272.436920
	C156.964203,287.358551 166.960358,300.153687 179.316727,310.944427
	C191.939331,321.967651 206.608414,328.771454 222.949860,331.124207
	C234.579453,332.798584 246.492065,332.495789 257.945679,328.690826
	C263.280396,326.918549 268.622131,325.377136 273.571045,322.393188
	C278.793762,319.244141 284.271790,320.706421 286.796051,324.850586
	C289.446869,329.202484 287.917969,334.496216 282.874939,338.182434
	C260.754974,354.350922 236.031784,362.375214 208.653641,360.183014
	C190.311783,358.714355 173.023468,352.802216 156.919907,343.786804
	C154.330826,342.337311 151.239212,341.792969 148.783112,339.356720
M102.202728,168.634995
	C99.724953,175.893158 97.939011,183.309067 96.630211,190.875366
	C90.624969,225.592041 95.723244,258.266998 113.011711,289.244232
	C136.966431,332.165985 193.749847,361.821869 245.987946,346.726898
	C255.565125,343.959442 264.755463,340.253601 272.862976,334.025696
	C271.687683,333.052734 271.057953,333.938324 270.362183,334.216705
	C248.135971,343.109131 225.707642,344.040527 203.190582,335.543915
	C153.961441,316.967621 122.068092,258.606323 135.577515,204.752518
	C143.885254,171.634659 163.888855,146.996521 193.016159,129.943771
	C229.228928,108.742798 269.515259,98.693672 309.812927,88.889740
	C317.988739,86.900658 326.207245,85.087051 334.406067,83.192558
	C321.139221,77.360901 307.653442,73.379837 293.772583,70.794235
	C259.513336,64.412727 225.603683,64.112167 192.518524,76.959740
	C148.980026,93.866554 118.383835,123.624519 102.202728,168.634995
z"/>
<path fill="#000000" opacity="1.000000" stroke="none"
	d="
M95.671585,377.057678
	C100.109375,371.224182 102.250305,370.561310 109.055481,373.580505
	C125.886620,381.047882 142.971054,387.768829 160.754074,392.670105
	C176.717270,397.069794 192.701080,400.581299 209.367294,401.935303
	C237.900345,404.253326 263.008209,396.443451 284.833038,378.763916
	C301.274902,365.444946 311.832306,347.850342 315.521698,326.720093
	C319.553192,303.630646 314.444916,282.596405 300.466156,263.734802
	C295.916992,257.596619 295.623047,252.948090 299.427246,249.584366
	C303.179016,246.266998 309.973145,247.314804 314.805298,251.655930
	C325.584869,261.340057 333.861389,272.883545 339.859161,285.970520
	C347.326996,302.265137 351.797546,319.343781 351.326996,337.437439
	C350.568878,366.587860 340.163177,391.864166 321.174683,413.953064
	C305.799438,431.838654 286.589935,443.709808 264.550873,451.037598
	C243.676315,457.978149 222.176041,458.230804 200.630280,454.498108
	C172.085953,449.552979 148.004913,435.644348 126.077751,417.288239
	C116.210205,409.027710 107.690483,399.504242 99.060661,390.072968
	C95.915169,386.635376 93.343666,382.583130 95.671585,377.057678
M307.166016,415.645416
	C360.657074,364.614288 344.390778,287.212585 307.901367,258.665863
	C324.217804,280.698334 330.107056,305.049622 323.990570,331.809540
	C317.991089,358.057648 303.055847,378.395905 280.766724,393.136810
	C251.651108,412.392456 219.583862,414.740814 186.237762,408.377960
	C162.806473,403.907043 140.148743,396.910248 118.156433,387.651611
	C114.211212,385.990723 110.444305,383.569916 105.237900,382.810089
	C110.528458,389.474457 115.704880,395.072205 121.160248,400.418854
	C145.510941,424.284302 173.242630,441.844238 207.850845,446.181610
	C245.200439,450.862549 278.536438,442.017365 307.166016,415.645416
z"/>
<path fill="#000000" opacity="1.000000" stroke="none"
	d="
M413.376678,223.754242
	C422.568878,244.077332 427.913361,264.812653 428.503693,286.934662
	C429.079803,308.523529 424.846436,329.072388 418.267792,349.383942
	C416.756531,354.049957 414.081909,357.105560 409.198486,357.165039
	C404.092102,357.227234 400.846558,354.179962 399.636353,349.278595
	C397.382294,340.149536 396.347687,330.787781 393.837830,321.670990
	C387.735321,299.504059 381.187073,277.551147 370.490967,257.052979
	C359.924377,236.803070 345.285828,220.071014 326.153015,207.734848
	C313.151001,199.351624 298.838654,194.051208 283.130798,192.125610
	C264.472137,189.838242 247.491608,193.499924 231.869629,203.500275
	C219.637451,211.330673 211.163864,222.368423 206.255676,236.091644
	C205.363113,238.587219 204.388428,241.056808 203.358353,243.499039
	C201.486435,247.937164 197.276230,250.101700 192.933212,248.937851
	C187.872299,247.581635 184.888260,243.629822 185.437180,238.816849
	C187.414444,221.480042 193.871658,205.955719 204.077484,191.832382
	C214.895462,176.861893 228.844208,165.407730 244.883041,156.823822
	C254.923370,151.450287 266.290710,148.621170 277.562927,146.817062
	C303.415009,142.679459 328.253693,147.109131 351.434509,158.866791
	C375.171967,170.906815 394.095947,188.466629 407.025055,212.046432
	C409.099609,215.830002 411.155029,219.624069 413.376678,223.754242
M404.145966,324.500458
	C405.681427,331.284790 407.216858,338.069122 409.013000,346.005280
	C409.961670,344.138092 410.345398,343.587219 410.537140,342.976105
	C419.746796,313.622772 422.024139,283.823425 414.400787,253.884659
	C405.366913,218.406311 386.368835,189.640778 354.232330,170.820908
	C325.287964,153.870438 294.258698,149.906204 262.373810,159.986191
	C234.945663,168.657257 214.884781,186.926910 202.286240,212.958237
	C198.647583,220.476517 196.020370,228.389511 195.522202,236.862930
	C198.144730,230.346390 201.152145,224.098938 204.971085,218.206192
	C208.903519,212.138382 213.452911,206.607162 218.945160,201.987274
	C243.684845,181.177032 271.879120,177.648102 301.957825,186.748077
	C332.633118,196.028580 355.662415,215.630402 372.420685,242.554459
	C387.990479,267.569061 396.680878,295.389435 404.145966,324.500458
z"/>
<path fill="#000000" opacity="1.000000" stroke="none"
	d="
M234.983856,296.417297
	C224.658936,289.626740 219.380722,280.561829 219.607407,268.336212
	C219.859436,254.742355 231.666580,241.869858 245.334686,240.690201
	C268.224670,238.714600 284.177673,259.525299 276.274323,281.050934
	C271.243713,294.752319 254.931381,302.832581 240.957214,298.522095
	C239.062759,297.937714 237.208237,297.223877 234.983856,296.417297
M245.870117,250.035828
	C233.738892,251.730728 227.009079,261.867737 229.346497,274.925049
	C231.242630,285.517242 242.130554,292.407593 253.107483,289.962067
	C264.167267,287.498077 271.501190,276.201294 268.696228,265.950012
	C265.600616,254.636322 259.226257,249.994354 245.870117,250.035828
z"/>
</svg>
